# xmcd
#
# Track frame offsets: 
#        150
#        27165
#        54932
#        79817
#        91870
#        116246
#        149449
#        174860
#        219588
#        234478
#
# Disc length: 3587 seconds
#
# Revision: 0
# Processed by: cddbd v1.5.2PL0 Copyright (c) Steve Scherf et al.
# Submitted via: ExactAudioCopy v1.2
#
DISCID=7e0e010a
DTITLE=R.L. Boyce - Ain't Gonna Play Too Long
DYEAR=2018
DGENRE=Blues
TTITLE0=Aint it Alright
TTITLE1=I'm Goin' Upstairs 
TTITLE2=Rooster Won't Crow
TTITLE3=Going Over The Hill
TTITLE4=Andria Is Coming
TTITLE5=Don't Worry My Mind No More
TTITLE6=How Many More Years
TTITLE7=Two White Horses
TTITLE8=Going Down South
TTITLE9=Ain't Gonna Play Too Long
EXTD=
EXTT0=
EXTT1=
EXTT2=
EXTT3=
EXTT4=
EXTT5=
EXTT6=
EXTT7=
EXTT8=
EXTT9=
PLAYORDER=
